<?xml version="1.0" encoding="UTF-8" standalone="no"?>
<svg
   xmlns:dc="http://purl.org/dc/elements/1.1/"
   xmlns:cc="http://creativecommons.org/ns#"
   xmlns:rdf="http://www.w3.org/1999/02/22-rdf-syntax-ns#"
   xmlns:svg="http://www.w3.org/2000/svg"
   xmlns="http://www.w3.org/2000/svg"
   xmlns:sodipodi="http://sodipodi.sourceforge.net/DTD/sodipodi-0.dtd"
   xmlns:inkscape="http://www.inkscape.org/namespaces/inkscape"
   width="8"
   height="8"
   viewBox="0 0 8 8"
   version="1.1"
   id="svg58"
   sodipodi:docname="eyeFFA62B.svg"
   inkscape:version="1.0.1 (3bc2e813f5, 2020-09-07, custom)">
  <metadata
     id="metadata64">
    <rdf:RDF>
      <cc:Work
         rdf:about="">
        <dc:format>image/svg+xml</dc:format>
        <dc:type
           rdf:resource="http://purl.org/dc/dcmitype/StillImage" />
        <dc:title></dc:title>
      </cc:Work>
    </rdf:RDF>
  </metadata>
  <defs
     id="defs62" />
  <sodipodi:namedview
     pagecolor="#ffffff"
     bordercolor="#666666"
     borderopacity="1"
     objecttolerance="10"
     gridtolerance="10"
     guidetolerance="10"
     inkscape:pageopacity="0"
     inkscape:pageshadow="2"
     inkscape:window-width="1231"
     inkscape:window-height="664"
     id="namedview60"
     showgrid="false"
     inkscape:zoom="58.625"
     inkscape:cx="4"
     inkscape:cy="4"
     inkscape:window-x="49"
     inkscape:window-y="28"
     inkscape:window-maximized="1"
     inkscape:current-layer="svg58" />
  <path
     d="M4.03 0c-2.53 0-4.03 3-4.03 3s1.5 3 4.03 3c2.47 0 3.97-3 3.97-3s-1.5-3-3.97-3zm-.03 1c1.11 0 2 .9 2 2 0 1.11-.89 2-2 2-1.1 0-2-.89-2-2 0-1.1.9-2 2-2zm0 1c-.55 0-1 .45-1 1s.45 1 1 1 1-.45 1-1c0-.1-.04-.19-.06-.28-.08.16-.24.28-.44.28-.28 0-.5-.22-.5-.5 0-.2.12-.36.28-.44-.09-.03-.18-.06-.28-.06z"
     transform="translate(0 1)"
     id="path56"
     style="fill:#ffa62b;fill-opacity:1" />
</svg>
